<?xml version="1.0" encoding="UTF-8" standalone="no"?>
<svg
   version="1.1"
   viewBox="0 0 1353.8383 349.26013"
   id="svg15"
   width="1353.8383"
   height="349.26013"
   xmlns="http://www.w3.org/2000/svg"
   xmlns:svg="http://www.w3.org/2000/svg">
  <defs
     id="defs12">
    <linearGradient
       id="linear-gradient"
       x1="1300.98"
       y1="831.87"
       x2="633.90997"
       y2="377.89001"
       gradientUnits="userSpaceOnUse"
       gradientTransform="matrix(0.34166624,0,0,0.34166624,284.56786,1405.0132)">
      <stop
         offset="0"
         stop-color="#418eea"
         id="stop13"
         style="stop-color:#6ac5f7;stop-opacity:1;" />
      <stop
         offset="0.19683258"
         stop-color="#418eea"
         id="stop1" />
      <stop
         offset="1"
         stop-color="#0037c0"
         id="stop2" />
    </linearGradient>
    <linearGradient
       id="linear-gradient-2"
       x1="827.15997"
       y1="200.99001"
       x2="376.88"
       y2="879.17999"
       gradientUnits="userSpaceOnUse"
       gradientTransform="matrix(0.34166624,0,0,0.34166624,284.56786,1405.0132)">
      <stop
         offset="0.12644546"
         stop-color="#6ac5f7"
         id="stop3"
         style="stop-color:#65d0ff;stop-opacity:1;" />
      <stop
         offset="1"
         stop-color="#1041d2"
         id="stop4" />
    </linearGradient>
    <linearGradient
       id="linear-gradient-3"
       x1="206.53999"
       y1="682.44"
       x2="884.72998"
       y2="1112.33"
       gradientUnits="userSpaceOnUse"
       gradientTransform="matrix(0.34166624,0,0,0.34166624,284.56786,1405.0132)">
      <stop
         offset="0"
         stop-color="#6ac5f7"
         id="stop5" />
      <stop
         offset="0.19738059"
         stop-color="#4b97ea"
         id="stop6" />
      <stop
         offset=".78"
         stop-color="#2059d8"
         id="stop7" />
      <stop
         offset="1"
         stop-color="#1041d2"
         id="stop8" />
    </linearGradient>
    <linearGradient
       id="linear-gradient-4"
       x1="673.06"
       y1="1298.97"
       x2="1125.1899"
       y2="617.08002"
       gradientUnits="userSpaceOnUse"
       gradientTransform="matrix(0.34166624,0,0,0.34166624,284.56786,1405.0132)">
      <stop
         offset="0.12192057"
         stop-color="#6ac5f7"
         id="stop9"
         style="stop-color:#65d0ff;stop-opacity:1;" />
      <stop
         offset="0.41703704"
         stop-color="#418ae6"
         id="stop10" />
      <stop
         offset=".76"
         stop-color="#1d55d7"
         id="stop11" />
      <stop
         offset=".94"
         stop-color="#1041d2"
         id="stop12" />
    </linearGradient>
  </defs>
  <!-- Generator: Adobe Illustrator 28.6.0, SVG Export Plug-In . SVG Version: 1.2.0 Build 709)  -->
  <g
     id="g15"
     transform="translate(-369.98781,-1490.4297)">
    <g
       id="Layer_2">
      <path
         d="m 679.07276,1761.624 c 11.51424,-20.4283 26.92334,-61.1583 5.07374,-109.6305 -20.29839,-45.0316 -62.15934,-69.7922 -85.68992,-80.664 -16.62544,-10.6771 -36.40791,-16.8681 -57.63564,-16.8681 -37.76779,0 -70.95041,19.6049 -89.94706,49.1863 10.86841,-23.5237 35.62554,-65.4086 80.67423,-85.7104 48.45511,-21.8359 89.17493,-6.4506 109.61336,5.0601 42.71853,31.054 70.48583,81.4191 70.48583,138.2655 0,37.5047 -12.0848,72.1872 -32.57793,100.3645 z"
         fill="url(#linear-gradient)"
         id="path12"
         style="fill:url(#linear-gradient);stroke-width:0.341666" />
      <path
         d="m 641.16487,1522.994 c -20.43843,-11.5073 -61.15823,-26.896 -109.61333,-5.0601 -45.0487,20.3052 -69.80925,62.1867 -80.67425,85.7104 l -0.007,0.01 c -10.66681,16.622 -16.85438,36.3908 -16.85438,57.6083 0,37.778 19.60822,70.9675 49.20677,89.9573 -23.5203,-10.8684 -65.42224,-35.6256 -85.7343,-80.6845 -21.82564,-48.4243 -6.46774,-89.127 5.03275,-109.5757 v -0.01 c 31.05404,-42.7357 81.4293,-70.52 138.29964,-70.52 37.49788,0 72.17013,12.0814 100.34398,32.5643 z"
         fill="url(#linear-gradient-2)"
         id="path13"
         style="fill:url(#linear-gradient-2);stroke-width:0.341666" />
      <path
         d="m 630.76115,1718.8849 c -10.87177,23.5238 -35.63235,65.4018 -80.67422,85.707 -48.44486,21.8324 -89.15781,6.4541 -109.59628,-5.0465 -42.72535,-31.054 -70.50282,-81.4259 -70.50282,-138.2825 0,-37.4774 12.07106,-72.136 32.53687,-100.3064 -11.49706,20.4521 -26.85838,61.1514 -5.03274,109.5758 20.30865,45.0589 62.214,69.8195 85.7343,80.6845 0,0.01 0.007,0.01 0.007,0.01 16.62206,10.6566 36.38062,16.8441 57.59126,16.8441 37.76096,0 70.94699,-19.598 89.94014,-49.1794 z"
         fill="url(#linear-gradient-3)"
         id="path14"
         style="fill:url(#linear-gradient-3);stroke-width:0.341666" />
      <path
         d="m 679.07276,1761.624 c -31.04724,42.7082 -81.40884,70.472 -138.25182,70.472 -37.48762,0 -72.15991,-12.0744 -100.33371,-32.554 20.43848,11.504 61.15142,26.8789 109.59628,5.0464 45.0419,-20.3051 69.80238,-62.1832 80.67425,-85.7069 10.66677,-16.6221 16.85776,-36.3977 16.85776,-57.6254 0,-37.7576 -19.59448,-70.9334 -49.16233,-89.9301 23.53058,10.8719 65.39153,35.6325 85.68991,80.6641 21.8462,48.4721 6.4404,89.2022 -5.07373,109.6305 z"
         fill="url(#linear-gradient-4)"
         id="path15"
         style="fill:url(#linear-gradient-4);stroke-width:0.341666" />
      <polygon
         points="345.23,455.82 345.24,457.01 345.23,457.01 "
         fill="#010201"
         id="polygon15"
         transform="matrix(0.34166624,0,0,0.34166624,284.56786,1405.0132)" />
      <path
         style="font-size:266.667px;font-family:Kinetika;-inkscape-font-specification:Kinetika;opacity:0.99;fill:#04395e"
         d="m 856.62415,1659.1211 78.93342,88.5334 h -49.60006 l -66.93341,-75.7334 v 75.7334 h -39.73338 v -178.4002 h 39.73338 v 79.4668 l 67.73342,-79.4668 h 47.20005 z m 182.40065,-28.5334 v -17.0667 h 35.4667 v 134.1335 h -35.4667 v -16.8 q -16.5334,19.7334 -43.73343,19.7334 -28.2667,0 -46.66672,-19.7334 -18.13336,-19.7333 -18.13336,-50.4 0,-30.4001 18.40003,-50.1334 18.40002,-19.7334 46.93339,-19.7334 25.86669,0 43.20009,20 z m -61.06678,76.5335 q 10.13335,10.4 25.33338,10.4 15.2,0 25.3333,-10.6667 10.1334,-10.9334 10.1334,-26.6667 0,-15.2 -10.1334,-25.6 -10.1333,-10.6667 -25.0666,-10.6667 -15.46673,0 -25.60008,10.6667 -10.13335,10.4 -10.13335,26.1333 0,15.7334 10.13335,26.4001 z m 165.06708,-115.4668 q -6.6667,6.6666 -16.5334,6.6666 -9.8666,0 -16.8,-6.6666 -6.6667,-6.9334 -6.6667,-16.8001 0,-9.6 6.6667,-16.2667 6.9334,-6.6666 16.8,-6.6666 9.8667,0 16.5334,6.6666 6.6667,6.6667 6.6667,16.2667 0,9.8667 -6.6667,16.8001 z m 2.6667,156.0001 H 1107.025 V 1613.521 h 38.6668 z m 145.8669,0 h -121.6002 v -26.4 l 69.0668,-76.0001 h -64.8001 v -31.7334 h 114.1335 v 25.3334 l -68.5335,77.0668 h 71.7335 z m 156.8004,-70.6667 q 0,7.7333 -0.8001,13.3333 h -105.3334 q 2.1333,14.1334 11.7333,22.6667 9.8667,8.2667 24.5334,8.2667 23.7334,0 33.0667,-18.1333 l 30.1334,12.8 q -6.6667,15.7333 -23.7334,25.3333 -16.8,9.3334 -39.2,9.3334 -32.5334,0 -52.5334,-19.4667 -19.7334,-19.4667 -19.7334,-50.1334 0,-31.2 20,-50.6667 20.2667,-19.7334 52.2668,-19.7334 30.6667,0 50.1334,18.6667 19.4667,18.4 19.4667,47.7334 z m -70.1335,-37.8667 q -13.0667,0 -22.9333,8 -9.8667,8 -12.8,21.0667 h 69.8667 q -2.1333,-12.8 -11.4667,-20.8 -9.3333,-8.2667 -22.6667,-8.2667 z m 172.2671,-28.2667 q 23.4667,0 38.1334,14.9333 14.6667,14.6667 14.6667,38.4001 v 83.4667 h -38.1334 v -75.4667 q 0,-12.5334 -7.2,-20.2667 -6.9334,-7.7334 -18.1334,-7.7334 -12.2667,0 -20.5333,9.6001 -8.0001,9.3333 -8.0001,23.7333 v 70.1334 h -38.4 V 1613.521 h 36.5334 v 16.0001 q 15.7333,-18.6667 41.0667,-18.6667 z m 150.9334,106.4001 q 11.7334,0 22.4001,-4.2667 v 31.4667 q -15.7334,6.1334 -32.8001,6.1334 -23.4667,0 -34.9334,-11.7334 -11.4666,-12 -11.4666,-33.0667 v -60 h -21.8667 v -32.2668 h 21.8667 v -41.3333 h 37.8667 v 41.3333 h 36.8 v 32.2668 h -36.8 v 51.4667 q 0,10.4 4,15.2 4.2667,4.8 14.9333,4.8 z"
         id="text158-2-0-3"
         aria-label="Kaizent" />
      <text
         xml:space="preserve"
         style="font-style:normal;font-variant:normal;font-weight:272;font-stretch:normal;font-size:96px;line-height:247.8px;font-family:Kinetika;-inkscape-font-specification:'Kinetika weight=272';text-align:start;letter-spacing:0.1px;word-spacing:0.06px;writing-mode:lr-tb;direction:ltr;text-anchor:start;opacity:0.99;fill:#04395e"
         x="1617.2974"
         y="1839.6898"
         id="text1"><tspan
           id="tspan1"
           x="1617.2974"
           y="1839.6898">  </tspan></text>
      <text
         xml:space="preserve"
         style="font-style:normal;font-variant:normal;font-weight:normal;font-stretch:normal;font-size:76px;line-height:196.175px;font-family:'.Al Nile PUA';-inkscape-font-specification:'.Al Nile PUA';text-align:start;letter-spacing:0.1px;word-spacing:0.06px;writing-mode:lr-tb;direction:ltr;text-anchor:start;opacity:0.99;fill:#184fd6;fill-opacity:1"
         x="1454.1667"
         y="1808.3333"
         id="text4"><tspan
           id="tspan4"
           x="1454.1667"
           y="1808.3333" /></text>
    </g>
  </g>
</svg>
