<?xml version="1.0" encoding="UTF-8" standalone="no"?>
<svg
   version="1.1"
   viewBox="0 0 980.5495 310.37512"
   id="svg15"
   sodipodi:docname="KaizensLogo.svg"
   inkscape:version="1.4 (e7c3feb1, 2024-10-09)"
   width="980.5495"
   height="310.37512"
   inkscape:export-filename="/Users/pmagaz/js/kaizens/public/images/KaizensLogo.svg"
   inkscape:export-xdpi="96"
   inkscape:export-ydpi="96"
   xmlns:inkscape="http://www.inkscape.org/namespaces/inkscape"
   xmlns:sodipodi="http://sodipodi.sourceforge.net/DTD/sodipodi-0.dtd"
   xmlns="http://www.w3.org/2000/svg"
   xmlns:svg="http://www.w3.org/2000/svg">
  <sodipodi:namedview
     id="namedview15"
     pagecolor="#ffffff"
     bordercolor="#000000"
     borderopacity="0.25"
     inkscape:showpageshadow="2"
     inkscape:pageopacity="0.0"
     inkscape:pagecheckerboard="0"
     inkscape:deskcolor="#d1d1d1"
     inkscape:zoom="0.24"
     inkscape:cx="1591.6667"
     inkscape:cy="1150"
     inkscape:window-width="1920"
     inkscape:window-height="1027"
     inkscape:window-x="0"
     inkscape:window-y="25"
     inkscape:window-maximized="0"
     inkscape:current-layer="Layer_2">
    <inkscape:page
       x="0"
       y="0"
       width="980.5495"
       height="310.37512"
       id="page2"
       margin="0"
       bleed="0" />
  </sodipodi:namedview>
  <defs
     id="defs12" />
  <!-- Generator: Adobe Illustrator 28.6.0, SVG Export Plug-In . SVG Version: 1.2.0 Build 709)  -->
  <g
     id="g15"
     transform="translate(-783.29071,-1595.921)">
    <g
       id="Layer_2">
      <path
         d="m 860.62415,1703.1211 78.93342,88.5334 h -49.60006 l -66.93341,-75.7334 v 75.7334 h -39.73338 v -178.4002 h 39.73338 v 79.4668 l 67.73342,-79.4668 h 47.20005 z m 182.40065,-28.5334 v -17.0667 h 35.4667 v 134.1335 h -35.4667 v -16.8 q -16.5334,19.7334 -43.73343,19.7334 -28.2667,0 -46.66672,-19.7334 -18.13336,-19.7333 -18.13336,-50.4 0,-30.4001 18.40003,-50.1334 18.40002,-19.7334 46.93339,-19.7334 25.86669,0 43.20009,20 z m -61.06678,76.5335 q 10.13335,10.4 25.33338,10.4 15.2,0 25.3333,-10.6667 10.1334,-10.9334 10.1334,-26.6667 0,-15.2 -10.1334,-25.6 -10.1333,-10.6667 -25.0666,-10.6667 -15.46673,0 -25.60008,10.6667 -10.13335,10.4 -10.13335,26.1333 0,15.7334 10.13335,26.4001 z m 165.06708,-115.4668 q -6.6667,6.6666 -16.5334,6.6666 -9.8666,0 -16.8,-6.6666 -6.6667,-6.9334 -6.6667,-16.8001 0,-9.6 6.6667,-16.2667 6.9334,-6.6666 16.8,-6.6666 9.8667,0 16.5334,6.6666 6.6667,6.6667 6.6667,16.2667 0,9.8667 -6.6667,16.8001 z m 2.6667,156.0001 H 1111.025 V 1657.521 h 38.6668 z m 145.8669,0 h -121.6002 v -26.4 l 69.0668,-76.0001 h -64.8001 v -31.7334 h 114.1335 v 25.3334 l -68.5335,77.0668 h 71.7335 z m 156.8004,-70.6667 q 0,7.7333 -0.8001,13.3333 h -105.3334 q 2.1333,14.1334 11.7333,22.6667 9.8667,8.2667 24.5334,8.2667 23.7334,0 33.0667,-18.1333 l 30.1334,12.8 q -6.6667,15.7333 -23.7334,25.3333 -16.8,9.3334 -39.2,9.3334 -32.5334,0 -52.5334,-19.4667 -19.7334,-19.4667 -19.7334,-50.1334 0,-31.2 20,-50.6667 20.2667,-19.7334 52.2668,-19.7334 30.6667,0 50.1334,18.6667 19.4667,18.4 19.4667,47.7334 z m -70.1335,-37.8667 q -13.0667,0 -22.9333,8 -9.8667,8 -12.8,21.0667 h 69.8667 q -2.1333,-12.8 -11.4667,-20.8 -9.3333,-8.2667 -22.6667,-8.2667 z m 172.2671,-28.2667 q 23.4667,0 38.1334,14.9333 14.6667,14.6667 14.6667,38.4001 v 83.4667 h -38.1334 v -75.4667 q 0,-12.5334 -7.2,-20.2667 -6.9334,-7.7334 -18.1334,-7.7334 -12.2667,0 -20.5333,9.6001 -8.0001,9.3333 -8.0001,23.7333 v 70.1334 h -38.4 V 1657.521 h 36.5334 v 16.0001 q 15.7333,-18.6667 41.0667,-18.6667 z m 139.4667,139.4668 q -38.9334,0 -65.8668,-18.4 l 13.6,-28 q 10.1334,6.9333 25.0667,12 14.9334,5.0666 28.2667,5.0666 10.4001,0 17.3334,-3.2 7.2,-3.2 7.2,-9.6 0,-6.4 -6.4,-8.8 -6.4,-2.6667 -22.9334,-5.6 -3.2,-0.5333 -4.8,-0.8 -24.8,-4.5333 -37.3333,-13.0667 -12.2667,-8.5333 -12.2667,-26.9333 0,-20.0001 15.4667,-31.2001 15.4666,-11.2 43.7333,-11.2 30.4001,0 56.5334,11.4667 l -9.8666,28.5334 q -25.3334,-11.7334 -48.0001,-11.7334 -21.6,0 -21.6,12.2667 0,7.4667 12,10.9333 4.2667,1.0667 15.4667,2.9334 l 2.4,0.5333 q 28.5334,5.3333 41.6,13.6 13.0667,8.2667 13.0667,27.7334 0,20.2667 -17.0667,32 -16.8,11.4667 -45.6,11.4667 z"
         id="text158-2-0-3"
         style="font-size:266.667px;font-family:Kinetika;-inkscape-font-specification:Kinetika;opacity:0.99;fill:#03304f;fill-opacity:0.996078"
         aria-label="Kaizens" />
      <path
         style="font-weight:272;font-size:61.3333px;line-height:158.317px;font-family:Kinetika;-inkscape-font-specification:'Kinetika weight=272';letter-spacing:0.0937824px;word-spacing:0.0562694px;baseline-shift:baseline;opacity:0.99;fill:#03304f;fill-opacity:0.996078;stroke-width:0.937824"
         d="m 750.43922,2031.9776 2.57598,0.01 0.1351,-38.7011 14.22924,0.05 0.008,-2.3307 -31.09579,-0.1085 -0.008,2.3306 14.29057,0.05 z m 69.18296,-19.6514 24.41051,0.085 0.008,-2.3306 -24.4105,-0.085 0.0584,-16.7439 25.26916,0.088 0.008,-2.3307 -27.84515,-0.097 -0.14323,41.0317 28.58115,0.1 0.008,-2.3306 -26.00516,-0.091 z m 94.7421,20.3534 c 8.70927,0.03 15.78012,-4.9742 18.8731,-12.5075 l -2.4499,-0.9899 c -2.72177,6.6146 -9.0549,11.1311 -16.41485,11.1055 -10.0586,-0.035 -17.94186,-8.2814 -17.90525,-18.7693 0.037,-10.6106 7.97789,-18.8629 17.97515,-18.828 7.60529,0.026 13.90609,4.7712 16.58076,11.6499 l 2.33408,-0.9732 c -2.91679,-7.7995 -10.01321,-13.0377 -18.84515,-13.0685 -11.77593,-0.041 -20.57865,9.1282 -20.62082,21.2108 -0.042,12.0212 8.75829,21.1293 20.47288,21.1702 z m 99.67452,-22.1579 -27.66117,-0.097 0.0681,-19.5039 -2.63731,-0.01 -0.14323,41.0317 2.63731,0.01 0.0668,-19.1359 27.6611,0.097 -0.067,19.1359 2.576,0.01 0.1432,-41.0317 -2.5759,-0.01 z m 87.5765,17.3585 -27.9618,-36.9592 -2.576,-0.01 -0.1433,41.0317 2.576,0.01 0.1285,-36.7997 28.0847,36.8982 2.392,0.01 0.1432,-41.0318 -2.5147,-0.01 z m 74.4336,4.7994 c 11.7146,0.041 20.4556,-9.0059 20.4976,-21.0272 0.042,-12.0826 -8.635,-21.3129 -20.3496,-21.3538 -11.7759,-0.041 -20.5787,9.1282 -20.6208,21.2108 -0.042,12.0212 8.6969,21.1291 20.4728,21.1702 z m 0.01,-2.3919 c -10.0586,-0.035 -17.9417,-8.3427 -17.9053,-18.7693 0.037,-10.6106 7.9779,-18.8629 18.0365,-18.8278 9.9973,0.035 17.819,8.3422 17.782,18.9528 -0.036,10.4266 -7.9159,18.6792 -17.9132,18.6443 z m 98.0577,1.7477 0.01,-2.392 -23.6132,-0.082 0.1349,-38.6398 -2.6374,-0.01 -0.1432,41.0317 z m 67.2721,0.6442 c 11.7146,0.041 20.4556,-9.0059 20.4975,-21.0272 0.042,-12.0826 -8.6349,-21.3129 -20.3495,-21.3538 -11.7759,-0.041 -20.5787,9.1282 -20.6208,21.2108 -0.042,12.0212 8.6969,21.1291 20.4728,21.1702 z m 0.01,-2.3919 c -10.0586,-0.035 -17.9417,-8.3427 -17.9053,-18.7693 0.037,-10.6106 7.9779,-18.8629 18.0365,-18.8278 9.9973,0.035 17.819,8.3422 17.782,18.9528 -0.036,10.4266 -7.9159,18.6792 -17.9132,18.6443 z m 107.7327,-28.8854 c -3.1051,-6.5735 -10.2654,-11.0759 -18.0547,-11.1031 -12.1439,-0.042 -20.7009,9.0052 -20.7433,21.1491 -0.043,12.3279 8.6968,21.1904 20.6567,21.2322 11.6533,0.041 19.9012,-8.3332 19.9417,-19.9252 l 0.01,-1.7173 -20.7306,-0.072 -0.01,2.3307 18.0932,0.063 c -0.034,9.6292 -7.1128,17.0259 -17.1714,16.9908 -10.4879,-0.037 -18.188,-8.0369 -18.1502,-18.8928 0.038,-10.7333 7.4257,-18.8035 18.2203,-18.7659 6.6853,0.023 13.1111,4.0938 15.789,10.0525 z m 38.6816,30.5414 2.6373,0.01 0.1433,-41.0318 -2.6374,-0.01 z m 59.615,-19.6175 24.4105,0.085 0.01,-2.3306 -24.4105,-0.085 0.059,-16.7439 25.2691,0.088 0.01,-2.3307 -27.8452,-0.097 -0.1432,41.0317 28.5811,0.1 0.01,-2.3306 -26.0052,-0.091 z m 90.633,20.2778 c 8.5866,0.03 16.0805,-3.1946 16.1101,-11.6585 0.03,-8.5253 -8.491,-9.8431 -15.7247,-10.911 -6.4367,-0.9425 -13.4235,-2.4389 -13.4015,-8.7561 0.018,-5.2747 4.3237,-8.6943 12.9717,-8.6641 4.2319,0.015 8.706,0.9503 13.4207,3.2362 l 1.0502,-2.1431 c -4.2247,-2.1001 -9.1882,-3.4054 -14.7081,-3.4247 -9.4453,-0.033 -15.3472,3.9332 -15.3722,11.1091 -0.03,8.648 9.2261,10.0909 15.1111,10.9702 6.8045,1.005 14.0375,2.257 14.0153,8.6356 -0.021,5.9493 -5.6139,9.3031 -13.2805,9.2764 -6.256,-0.022 -12.1982,-2.0666 -16.235,-5.2701 l -1.1731,2.2039 c 3.854,2.8962 9.9173,5.3707 17.216,5.3962 z"
         id="text158-2-0-3-3"
         transform="scale(1.0662985,0.9378237)"
         aria-label="T   E   C   H   N   O   L   O   G  I   E   S" />
      <text
         xml:space="preserve"
         style="font-style:normal;font-variant:normal;font-weight:272;font-stretch:normal;font-size:96px;line-height:247.8px;font-family:Kinetika;-inkscape-font-specification:'Kinetika weight=272';text-align:start;letter-spacing:0.1px;word-spacing:0.06px;writing-mode:lr-tb;direction:ltr;text-anchor:start;opacity:0.99;fill:#03304f;fill-opacity:0.996078"
         x="1617.2974"
         y="1877.6898"
         id="text1"><tspan
           sodipodi:role="line"
           id="tspan1"
           x="1617.2974"
           y="1877.6898">  </tspan></text>
      <text
         xml:space="preserve"
         style="font-style:normal;font-variant:normal;font-weight:normal;font-stretch:normal;font-size:76px;line-height:196.175px;font-family:'.Al Nile PUA';-inkscape-font-specification:'.Al Nile PUA';text-align:start;letter-spacing:0.1px;word-spacing:0.06px;writing-mode:lr-tb;direction:ltr;text-anchor:start;opacity:0.99;fill:#184fd6;fill-opacity:1"
         x="1454.1667"
         y="1808.3333"
         id="text4"><tspan
           sodipodi:role="line"
           id="tspan4"
           x="1454.1667"
           y="1808.3333" /></text>
    </g>
  </g>
</svg>
