<?xml version="1.0" encoding="UTF-8"?>
<svg xmlns="http://www.w3.org/2000/svg" xmlns:xlink="http://www.w3.org/1999/xlink" viewBox="0 0 1310 300">
  <defs>
    <style>
      .cls-1 {
        fill: url(#linear-gradient-5);
      }

      .cls-2 {
        fill: url(#linear-gradient-6);
      }

      .cls-3 {
        fill: url(#linear-gradient-4);
      }

      .cls-4 {
        fill: url(#linear-gradient-3);
      }

      .cls-5 {
        fill: url(#linear-gradient-2);
      }

      .cls-6 {
        fill: url(#linear-gradient);
      }

      .cls-7 {
        fill: #fff;
      }

      .cls-8 {
        fill: #002333;
      }
    </style>
    <linearGradient id="linear-gradient" x1="211.52" y1="208.64" x2="211.52" y2="42.54" gradientUnits="userSpaceOnUse">
      <stop offset="0" stop-color="#04e373"/>
      <stop offset="1" stop-color="#03a05c"/>
    </linearGradient>
    <linearGradient id="linear-gradient-2" x1="176.58" y1="46.57" x2="216.16" y2="175.68" gradientUnits="userSpaceOnUse">
      <stop offset="0" stop-color="#04e373"/>
      <stop offset="1" stop-color="#04e373" stop-opacity="0"/>
    </linearGradient>
    <linearGradient id="linear-gradient-3" x1="8026.56" y1="-5100.62" x2="8026.56" y2="-5266.72" gradientTransform="translate(8650.05 4368.48) rotate(-120.71)" xlink:href="#linear-gradient"/>
    <linearGradient id="linear-gradient-4" x1="7991.62" y1="-5262.69" x2="8031.2" y2="-5133.58" gradientTransform="translate(8650.05 4368.48) rotate(-120.71)" xlink:href="#linear-gradient-2"/>
    <linearGradient id="linear-gradient-5" x1="72.15" y1="205.89" x2="229.37" y2="256.31" xlink:href="#linear-gradient"/>
    <linearGradient id="linear-gradient-6" x1="211.35" y1="224.73" x2="98.25" y2="200.92" xlink:href="#linear-gradient-2"/>
  </defs>
  <g id="Background">
    <rect class="cls-8" width="1310" height="300"/>
  </g>
  <g id="Spiral">
    <path class="cls-6" d="M255.9,139.55c0,30.41-12.36,57.95-32.35,77.84l-17.61-17.67c15.42-15.39,24.98-36.66,24.98-60.17,0-39.62-27.1-72.91-63.79-82.27l6.21-24.2c47.46,12.11,82.55,55.2,82.55,106.47Z"/>
    <path class="cls-5" d="M230.93,139.55c0,23.51-9.55,44.77-24.98,60.17l-17.61-17.7c10.9-10.87,17.64-25.88,17.64-42.46,0-27.94-19.14-51.46-45.02-58.11l6.18-24.17c36.69,9.37,63.79,42.65,63.79,82.27Z"/>
    <path class="cls-4" d="M83.71,69.2c26.15-15.53,56.14-18.96,83.44-11.94l-6.2,24.16c-21.11-5.4-44.27-2.76-64.49,9.25-34.07,20.23-48.84,60.53-38.16,96.86l-23.98,7.01c-13.82-46.99,5.3-99.17,49.38-125.35Z"/>
    <path class="cls-3" d="M96.47,90.68c20.21-12.01,43.37-14.65,64.49-9.25l-6.23,24.18c-14.91-3.82-31.26-1.95-45.52,6.52-24.03,14.27-34.47,42.73-26.97,68.38l-23.93,7.03c-10.68-36.33,4.1-76.62,38.16-96.86Z"/>
    <path class="cls-1" d="M241.22,235.06c-34.72,34.53-89.7,42.56-133.73,16.3-24.89-14.86-41.78-38.03-49.18-63.85l23.95-6.99c5.74,19.98,18.8,37.9,38.03,49.39,34.03,20.29,76.5,14.11,103.35-12.58l17.58,17.73Z"/>
    <path class="cls-2" d="M223.64,217.33c-26.85,26.7-69.31,32.88-103.35,12.58-19.23-11.49-32.28-29.41-38.03-49.39l23.98-6.99c4.03,14.14,13.24,26.82,26.85,34.97,23.98,14.33,53.98,9.93,72.97-8.87l17.58,17.7Z"/>
  </g>
  <g id="Leters">
    <g>
      <path class="cls-7" d="M304.31,159.6c0-33.6,24.18-57.15,58.56-57.15s58.72,23.55,58.72,57.15-24.33,57.15-58.72,57.15-58.56-23.55-58.56-57.15ZM362.87,193.04c19.62,0,33.13-13.66,33.13-33.44s-13.5-33.44-33.13-33.44-33.13,13.66-33.13,33.44,13.66,33.44,33.13,33.44Z"/>
      <path class="cls-7" d="M434.3,132.12h17.74l2.51,9.26c6.59-7.69,16.48-11.46,27.47-11.46,21.51,0,34.54,14.44,34.54,37.21v47.41h-23.86v-44.9c0-12.09-6.12-19.31-16.33-19.31-10.99,0-18.21,8.01-18.21,21.04v43.17h-23.86v-82.42Z"/>
      <path class="cls-7" d="M527.09,173.26c0-25.59,18.37-43.33,45.06-43.33,28.26,0,46.16,20.1,44.74,50.24h-66.1c2.2,11.3,10.68,17.43,21.51,17.43,7.85,0,14.91-3.14,18.84-8.64h24.18c-7.22,17.43-23.24,27.79-43.49,27.79-26.53,0-44.74-17.74-44.74-43.49ZM593.81,165.09c-2.67-10.05-10.52-16.17-21.51-16.17s-18.68,6.12-21.35,16.17h42.86Z"/>
      <path class="cls-7" d="M630.08,104.65h43.02c26.53,0,43.65,15.54,43.65,39.72s-17.11,39.56-43.65,39.56h-18.05v30.61h-24.96v-109.9ZM671.05,162.42c13.03,0,20.25-6.44,20.25-17.9s-7.22-18.05-20.25-18.05h-16.17v35.95h16.17Z"/>
      <path class="cls-7" d="M719.88,173.26c0-25.59,18.84-43.33,46.31-43.33s46.16,17.74,46.16,43.33-18.84,43.49-46.16,43.49-46.31-17.74-46.31-43.49ZM766.2,196.18c13.35,0,22.61-9.42,22.61-22.92s-9.26-22.92-22.61-22.92-22.76,9.42-22.76,22.92,9.42,22.92,22.76,22.92Z"/>
      <path class="cls-7" d="M824.44,132.12h17.74l3.14,10.99c5.34-7.69,13.03-10.99,25.12-10.99h8.95v21.67h-9.11c-13.66,0-21.98,6.59-21.98,24.33v36.42h-23.86v-82.42Z"/>
      <path class="cls-7" d="M897.92,183.3v-31.71h-16.01v-19.47h7.38c8.95,0,11.3-2.2,12.56-10.68l1.41-10.68h18.53v21.35h22.61v19.47h-22.61v28.1c0,9.58,4.4,14.13,13.82,14.13h9.89v20.72h-15.07c-20.88,0-32.5-11.15-32.5-31.24Z"/>
      <path class="cls-7" d="M996.04,95.39h18.21v18.84h-13.03c-8.63,0-12.4,3.92-12.4,12.56v5.34h24.65v19.47h-24.18v62.96h-23.86v-62.96h-16.48v-19.47h16.48v-6.59c0-19.47,10.83-30.14,30.61-30.14Z"/>
      <path class="cls-7" d="M1013.62,173.26c0-25.59,18.84-43.33,46.31-43.33s46.16,17.74,46.16,43.33-18.84,43.49-46.16,43.49-46.31-17.74-46.31-43.49ZM1059.94,196.18c13.35,0,22.61-9.42,22.61-22.92s-9.26-22.92-22.61-22.92-22.76,9.42-22.76,22.92,9.42,22.92,22.76,22.92Z"/>
      <path class="cls-7" d="M1118.19,98.37h23.86v116.18h-23.86v-116.18Z"/>
      <path class="cls-7" d="M1171.88,90.52c9.11,0,15.39,6.12,15.39,14.92s-6.28,14.91-15.39,14.91-15.39-6.12-15.39-14.91,6.28-14.92,15.39-14.92ZM1159.95,132.12h23.86v82.42h-23.86v-82.42Z"/>
      <path class="cls-7" d="M1195.9,173.26c0-25.59,18.84-43.33,46.31-43.33s46.16,17.74,46.16,43.33-18.84,43.49-46.16,43.49-46.31-17.74-46.31-43.49ZM1242.21,196.18c13.35,0,22.61-9.42,22.61-22.92s-9.26-22.92-22.61-22.92-22.76,9.42-22.76,22.92,9.42,22.92,22.76,22.92Z"/>
    </g>
  </g>
</svg>