<?xml version="1.0" encoding="UTF-8" standalone="no"?>
<svg
   version="1.1"
   viewBox="0 0 1475.4635 364.21185"
   id="svg15"
   sodipodi:docname="KanzentHorizontal.svg"
   inkscape:version="1.4 (e7c3feb1, 2024-10-09)"
   width="1475.4635"
   height="364.21185"
   xmlns:inkscape="http://www.inkscape.org/namespaces/inkscape"
   xmlns:sodipodi="http://sodipodi.sourceforge.net/DTD/sodipodi-0.dtd"
   xmlns="http://www.w3.org/2000/svg"
   xmlns:svg="http://www.w3.org/2000/svg">
  <sodipodi:namedview
     id="namedview15"
     pagecolor="#ffffff"
     bordercolor="#000000"
     borderopacity="0.25"
     inkscape:showpageshadow="2"
     inkscape:pageopacity="0.0"
     inkscape:pagecheckerboard="0"
     inkscape:deskcolor="#d1d1d1"
     inkscape:zoom="0.5"
     inkscape:cx="678"
     inkscape:cy="86"
     inkscape:window-width="1920"
     inkscape:window-height="1027"
     inkscape:window-x="23"
     inkscape:window-y="81"
     inkscape:window-maximized="0"
     inkscape:current-layer="Layer_2" />
  <defs
     id="defs12">
    <linearGradient
       id="linear-gradient"
       x1="1300.98"
       y1="831.87"
       x2="633.90997"
       y2="377.89001"
       gradientUnits="userSpaceOnUse"
       gradientTransform="matrix(0.36421181,0,0,0.36421181,460.98139,669.0436)">
      <stop
         offset="0"
         stop-color="#418eea"
         id="stop13"
         style="stop-color:#6ac5f7;stop-opacity:1;" />
      <stop
         offset="0.19683258"
         stop-color="#418eea"
         id="stop1" />
      <stop
         offset="1"
         stop-color="#0037c0"
         id="stop2" />
    </linearGradient>
    <linearGradient
       id="linear-gradient-2"
       x1="827.15997"
       y1="200.99001"
       x2="376.88"
       y2="879.17999"
       gradientUnits="userSpaceOnUse"
       gradientTransform="matrix(0.36421181,0,0,0.36421181,460.98139,669.0436)">
      <stop
         offset="0.12644546"
         stop-color="#6ac5f7"
         id="stop3"
         style="stop-color:#65d0ff;stop-opacity:1;" />
      <stop
         offset="1"
         stop-color="#1041d2"
         id="stop4" />
    </linearGradient>
    <linearGradient
       id="linear-gradient-3"
       x1="206.53999"
       y1="682.44"
       x2="884.72998"
       y2="1112.33"
       gradientUnits="userSpaceOnUse"
       gradientTransform="matrix(0.36421181,0,0,0.36421181,460.98139,669.0436)">
      <stop
         offset="0"
         stop-color="#6ac5f7"
         id="stop5" />
      <stop
         offset="0.19738059"
         stop-color="#4b97ea"
         id="stop6" />
      <stop
         offset=".78"
         stop-color="#2059d8"
         id="stop7" />
      <stop
         offset="1"
         stop-color="#1041d2"
         id="stop8" />
    </linearGradient>
    <linearGradient
       id="linear-gradient-4"
       x1="673.06"
       y1="1298.97"
       x2="1125.1899"
       y2="617.08002"
       gradientUnits="userSpaceOnUse"
       gradientTransform="matrix(0.36421181,0,0,0.36421181,460.98139,669.0436)">
      <stop
         offset="0.12192057"
         stop-color="#6ac5f7"
         id="stop9"
         style="stop-color:#65d0ff;stop-opacity:1;" />
      <stop
         offset="0.41703704"
         stop-color="#418ae6"
         id="stop10" />
      <stop
         offset=".76"
         stop-color="#1d55d7"
         id="stop11" />
      <stop
         offset=".94"
         stop-color="#1041d2"
         id="stop12" />
    </linearGradient>
  </defs>
  <!-- Generator: Adobe Illustrator 28.6.0, SVG Export Plug-In . SVG Version: 1.2.0 Build 709)  -->
  <g
     id="g15"
     transform="translate(-552.03799,-760.09655)">
    <g
       id="Layer_2">
      <path
         d="m 881.51857,1049.1861 c 12.27395,-21.7763 28.69992,-65.19399 5.40855,-116.86472 -21.63779,-48.00312 -66.26105,-74.39755 -91.34433,-85.98677 -17.7225,-11.38162 -38.81039,-17.98113 -61.43891,-17.98113 -40.25998,0 -75.63216,20.89846 -95.88235,52.43193 11.58553,-25.07599 37.97638,-69.72472 85.99767,-91.36618 51.65255,-23.27676 95.05928,-6.87632 116.84644,5.39397 45.53737,33.10322 75.13688,86.79168 75.13688,147.38924 0,39.97956 -12.88217,76.95076 -34.72763,106.98736 z"
         fill="url(#linear-gradient)"
         id="path12"
         sodipodi:nodetypes="cccscccscc"
         style="fill:url(#linear-gradient);stroke-width:0.364212" />
      <path
         d="m 841.10932,794.80956 c -21.78725,-12.26665 -65.19389,-28.67074 -116.84654,-5.39397 -48.02128,21.6451 -74.41572,66.29019 -85.99767,91.36617 l -0.01,0.008 c -11.37068,17.71891 -17.9666,38.79221 -17.9666,61.40977 0,40.27089 20.90219,75.65057 52.45392,95.89347 -25.07243,-11.5856 -69.73938,-37.9764 -91.3917,-86.00876 -23.26405,-51.61975 -6.89271,-95.0083 5.36661,-116.80638 v -0.008 c 33.10321,-45.55562 86.80262,-75.17331 147.42565,-75.17331 39.97228,0 76.93246,12.87853 106.96544,34.71301 z"
         fill="url(#linear-gradient-2)"
         id="path13"
         sodipodi:nodetypes="ccccsccccsc"
         style="fill:url(#linear-gradient-2);stroke-width:0.364212" />
      <path
         d="m 830.01906,1003.6268 c -11.58931,25.076 -37.98375,69.7176 -85.99777,91.3625 -51.64161,23.2732 -95.04108,6.8799 -116.82823,-5.3794 -45.54464,-33.1031 -75.15507,-86.7989 -75.15507,-147.40746 0,-39.95039 12.8676,-76.89604 34.68393,-106.9253 -12.25575,21.80171 -28.63074,65.18663 -5.36487,116.80637 21.64873,48.03229 66.31936,74.42679 91.39169,86.00869 0,0.01 0.01,0.01 0.01,0.01 17.71882,11.3598 38.78124,17.9557 61.39155,17.9557 40.25262,0 75.62857,-20.8913 95.87508,-52.4247 z"
         fill="url(#linear-gradient-3)"
         id="path14"
         sodipodi:nodetypes="cccsccccscc"
         style="fill:url(#linear-gradient-3);stroke-width:0.364212" />
      <path
         d="m 881.51857,1049.1861 c -33.09595,45.5264 -86.78083,75.1223 -147.37469,75.1223 -39.96135,0 -76.92152,-12.8712 -106.9544,-34.7022 21.78715,12.263 65.18652,28.6526 116.82823,5.3794 48.01402,-21.6449 74.40845,-66.2865 85.99767,-91.3625 11.37068,-17.71887 17.97019,-38.79943 17.97019,-61.42794 0,-40.24905 -20.88757,-75.61402 -52.40646,-95.86419 25.08328,11.58921 69.70654,37.98364 91.34433,85.98676 23.28769,51.6708 6.8654,95.08847 -5.40855,116.86487 z"
         fill="url(#linear-gradient-4)"
         id="path15"
         style="fill:url(#linear-gradient-4);stroke-width:0.364212"
         sodipodi:nodetypes="cscccscccc" />
      <polygon
         points="345.23,457.01 345.23,455.82 345.24,457.01 "
         fill="#010201"
         id="polygon15"
         transform="matrix(0.36421181,0,0,0.36421181,460.9814,669.0436)" />
      <path
         style="font-size:266.667px;font-family:Kinetika;-inkscape-font-specification:Kinetika;opacity:0.99;fill:#04395e"
         d="m 1070.1662,941.4397 78.9334,88.5334 h -49.6 l -66.9334,-75.73338 v 75.73338 H 992.83277 V 851.57293 h 39.73343 v 79.46676 l 67.7334,-79.46676 h 47.2 z m 182.4006,-28.53337 v -17.06668 h 35.4667 v 134.13345 h -35.4667 v -16.8 q -16.5333,19.7334 -43.7334,19.7334 -28.2667,0 -46.6667,-19.7334 -18.1334,-19.73333 -18.1334,-50.40004 0,-30.40003 18.4001,-50.13339 18.4,-19.73336 46.9334,-19.73336 25.8667,0 43.2,20.00002 z m -61.0667,76.53343 q 10.1333,10.40001 25.3333,10.40001 15.2001,0 25.3334,-10.66668 10.1333,-10.93334 10.1333,-26.66669 0,-15.20002 -10.1333,-25.60004 -10.1333,-10.66668 -25.0667,-10.66668 -15.4667,0 -25.6,10.66668 -10.1334,10.40002 -10.1334,26.13337 0,15.73335 10.1334,26.40003 z m 206.6671,-96.26678 q 23.4667,0 38.1334,14.93335 14.6667,14.66668 14.6667,38.40005 v 83.46672 h -38.1334 v -75.46671 q 0,-12.53335 -7.2,-20.2667 -6.9334,-7.73334 -18.1334,-7.73334 -12.2667,0 -20.5333,9.60001 -8.0001,9.33335 -8.0001,23.73337 v 70.13337 h -38.4 V 895.83965 h 36.5334 v 16.00002 q 15.7333,-18.66669 41.0667,-18.66669 z m 197.0668,136.80012 h -121.6002 v -26.4 l 69.0668,-76.00008 h -64.8001 v -31.73337 h 114.1335 v 25.33336 l -68.5334,77.06676 h 71.7334 z m 156.8004,-70.66671 q 0,7.73334 -0.8,13.33335 h -105.3335 q 2.1334,14.13335 11.7334,22.6667 9.8667,8.26666 24.5334,8.26666 23.7333,0 33.0667,-18.13334 l 30.1333,12.80001 q -6.6666,15.73333 -23.7333,25.33333 -16.8001,9.3334 -39.2001,9.3334 -32.5334,0 -52.5334,-19.4667 -19.7333,-19.4667 -19.7333,-50.1334 0,-31.20004 20,-50.66673 20.2667,-19.73336 52.2667,-19.73336 30.6667,0 50.1334,18.66669 19.4667,18.40002 19.4667,47.73339 z m -70.1334,-37.86671 q -13.0667,0 -22.9334,8.00001 -9.8667,8.00001 -12.8,21.06669 h 69.8668 q -2.1334,-12.80001 -11.4667,-20.80002 -9.3334,-8.26668 -22.6667,-8.26668 z m 172.267,-28.2667 q 23.4667,0 38.1334,14.93335 14.6667,14.66668 14.6667,38.40005 v 83.46672 h -38.1334 v -75.46671 q 0,-12.53335 -7.2,-20.2667 -6.9334,-7.73334 -18.1334,-7.73334 -12.2667,0 -20.5333,9.60001 -8.0001,9.33335 -8.0001,23.73337 v 70.13337 h -38.4 V 895.83965 h 36.5334 v 16.00002 q 15.7333,-18.66669 41.0667,-18.66669 z m 150.9335,106.40013 q 11.7333,0 22.4,-4.26667 v 31.46666 q -15.7333,6.1334 -32.8,6.1334 -23.4667,0 -34.9334,-11.7334 -11.4667,-12 -11.4667,-33.06667 v -60.00008 h -21.8667 v -32.2667 h 21.8667 v -41.33339 h 37.8667 v 41.33339 h 36.8001 v 32.2667 h -36.8001 v 51.46673 q 0,10.40002 4,15.20002 4.2667,4.80001 14.9334,4.80001 z"
         id="text158-2-0-3"
         aria-label="Kanzent" />
      <text
         xml:space="preserve"
         style="font-style:normal;font-variant:normal;font-weight:272;font-stretch:normal;font-size:96px;line-height:247.8px;font-family:Kinetika;-inkscape-font-specification:'Kinetika weight=272';text-align:start;letter-spacing:0.1px;word-spacing:0.06px;writing-mode:lr-tb;direction:ltr;text-anchor:start;opacity:0.99;fill:#04395e"
         x="1617.2974"
         y="1839.6898"
         id="text1"><tspan
           sodipodi:role="line"
           id="tspan1"
           x="1617.2974"
           y="1839.6898">  </tspan></text>
      <text
         xml:space="preserve"
         style="font-style:normal;font-variant:normal;font-weight:normal;font-stretch:normal;font-size:76px;line-height:196.175px;font-family:'.Al Nile PUA';-inkscape-font-specification:'.Al Nile PUA';text-align:start;letter-spacing:0.1px;word-spacing:0.06px;writing-mode:lr-tb;direction:ltr;text-anchor:start;opacity:0.99;fill:#184fd6;fill-opacity:1"
         x="1454.1667"
         y="1808.3333"
         id="text4"><tspan
           sodipodi:role="line"
           id="tspan4"
           x="1454.1667"
           y="1808.3333" /></text>
    </g>
  </g>
</svg>
