<?xml version="1.0" encoding="UTF-8" standalone="no"?>
<svg
   version="1.1"
   viewBox="0 0 1043.9791 1398.2323"
   id="svg15"
   sodipodi:docname="KanzentVertical.svg"
   inkscape:version="1.4 (e7c3feb1, 2024-10-09)"
   width="1043.9791"
   height="1398.2323"
   xmlns:inkscape="http://www.inkscape.org/namespaces/inkscape"
   xmlns:sodipodi="http://sodipodi.sourceforge.net/DTD/sodipodi-0.dtd"
   xmlns="http://www.w3.org/2000/svg"
   xmlns:svg="http://www.w3.org/2000/svg">
  <sodipodi:namedview
     id="namedview15"
     pagecolor="#ffffff"
     bordercolor="#000000"
     borderopacity="0.25"
     inkscape:showpageshadow="2"
     inkscape:pageopacity="0.0"
     inkscape:pagecheckerboard="0"
     inkscape:deskcolor="#d1d1d1"
     inkscape:zoom="0.3"
     inkscape:cx="710"
     inkscape:cy="603.33333"
     inkscape:window-width="1920"
     inkscape:window-height="1027"
     inkscape:window-x="0"
     inkscape:window-y="81"
     inkscape:window-maximized="0"
     inkscape:current-layer="Layer_2" />
  <defs
     id="defs12">
    <linearGradient
       id="linear-gradient"
       x1="1300.98"
       y1="831.87"
       x2="633.90997"
       y2="377.89001"
       gradientUnits="userSpaceOnUse"
       gradientTransform="matrix(1.044,0,0,1.044,521.31128,191.09592)">
      <stop
         offset="0"
         stop-color="#418eea"
         id="stop13"
         style="stop-color:#6ac5f7;stop-opacity:1;" />
      <stop
         offset="0.19683258"
         stop-color="#418eea"
         id="stop1" />
      <stop
         offset="1"
         stop-color="#0037c0"
         id="stop2" />
    </linearGradient>
    <linearGradient
       id="linear-gradient-2"
       x1="827.15997"
       y1="200.99001"
       x2="376.88"
       y2="879.17999"
       gradientUnits="userSpaceOnUse"
       gradientTransform="matrix(1.044,0,0,1.044,521.31128,191.09592)">
      <stop
         offset="0.12644546"
         stop-color="#6ac5f7"
         id="stop3"
         style="stop-color:#65d0ff;stop-opacity:1;" />
      <stop
         offset="1"
         stop-color="#1041d2"
         id="stop4" />
    </linearGradient>
    <linearGradient
       id="linear-gradient-3"
       x1="206.53999"
       y1="682.44"
       x2="884.72998"
       y2="1112.33"
       gradientUnits="userSpaceOnUse"
       gradientTransform="matrix(1.044,0,0,1.044,521.31128,191.09592)">
      <stop
         offset="0"
         stop-color="#6ac5f7"
         id="stop5" />
      <stop
         offset="0.19738059"
         stop-color="#4b97ea"
         id="stop6" />
      <stop
         offset=".78"
         stop-color="#2059d8"
         id="stop7" />
      <stop
         offset="1"
         stop-color="#1041d2"
         id="stop8" />
    </linearGradient>
    <linearGradient
       id="linear-gradient-4"
       x1="673.06"
       y1="1298.97"
       x2="1125.1899"
       y2="617.08002"
       gradientUnits="userSpaceOnUse"
       gradientTransform="matrix(1.044,0,0,1.044,521.31128,191.09592)">
      <stop
         offset="0.12192057"
         stop-color="#6ac5f7"
         id="stop9"
         style="stop-color:#65d0ff;stop-opacity:1;" />
      <stop
         offset="0.41703704"
         stop-color="#418ae6"
         id="stop10" />
      <stop
         offset=".76"
         stop-color="#1d55d7"
         id="stop11" />
      <stop
         offset=".94"
         stop-color="#1041d2"
         id="stop12" />
    </linearGradient>
  </defs>
  <!-- Generator: Adobe Illustrator 28.6.0, SVG Export Plug-In . SVG Version: 1.2.0 Build 709)  -->
  <g
     id="g15"
     transform="translate(-782.32172,-452.0959)">
    <g
       id="Layer_2">
      <path
         d="m 1726.7658,1280.7605 c 35.1828,-62.4208 82.2672,-186.8761 15.5034,-334.9883 -62.024,-137.5992 -189.9349,-213.2579 -261.8352,-246.4779 -50.801,-32.625 -111.2486,-51.5423 -176.1123,-51.5423 -115.4038,0 -216.7971,59.9046 -274.8436,150.2942 33.2098,-71.8794 108.858,-199.8633 246.5094,-261.8978 148.0601,-66.7221 272.484,-19.7107 334.9361,15.4616 130.5313,94.8892 215.3772,248.7852 215.3772,422.4859 0,114.5999 -36.9263,220.5763 -99.5454,306.6751 z"
         fill="url(#linear-gradient)"
         id="path12"
         sodipodi:nodetypes="cccscccscc"
         style="fill:url(#linear-gradient);stroke-width:1.044" />
      <path
         d="m 1610.934,551.5996 c -62.4521,-35.1619 -186.876,-82.1838 -334.9361,-15.4617 -137.6514,62.045 -213.31,190.0185 -246.5093,261.8979 l -0.021,0.021 c -32.59362,50.7906 -51.50045,111.1964 -51.50045,176.0288 0,115.4351 59.91505,216.8492 150.35685,274.8747 -71.8689,-33.2096 -199.90503,-108.8578 -261.97083,-246.5406 -66.69072,-147.9661 -19.76292,-272.3378 15.37812,-334.8212 v -0.021 c 94.88914,-130.5836 248.81651,-215.4816 422.59031,-215.4816 114.579,0 220.5241,36.9159 306.6123,99.5037 z"
         fill="url(#linear-gradient-2)"
         id="path13"
         sodipodi:nodetypes="ccccsccccsc"
         style="fill:url(#linear-gradient-2);stroke-width:1.044" />
      <path
         d="m 1579.1442,1150.1665 c -33.2201,71.8794 -108.8787,199.8426 -246.5093,261.8874 -148.0287,66.7116 -272.4318,19.7211 -334.88381,-15.4199 -130.55217,-94.8891 -215.42937,-248.806 -215.42937,-422.5381 0,-114.5163 36.88452,-220.4197 99.42012,-306.4975 -35.1306,62.4939 -82.06884,186.8551 -15.37812,334.8212 62.05536,137.6828 190.10188,213.3414 261.97088,246.5406 0,0.021 0.021,0.021 0.021,0.021 50.7906,32.5624 111.1651,51.4693 175.9766,51.4693 115.3829,0 216.7866,-59.884 274.8226,-150.2734 z"
         fill="url(#linear-gradient-3)"
         id="path14"
         sodipodi:nodetypes="cccsccccscc"
         style="fill:url(#linear-gradient-3);stroke-width:1.044" />
      <path
         d="m 1726.7658,1280.7605 c -94.8683,130.4999 -248.7539,215.3354 -422.4441,215.3354 -114.5477,0 -220.4928,-36.8949 -306.58105,-99.4723 62.45205,35.1514 186.85505,82.1314 334.88385,15.4198 137.6305,-62.0447 213.2892,-190.008 246.5093,-261.8874 32.5937,-50.7906 51.5109,-111.2172 51.5109,-176.0809 0,-115.3725 -59.8734,-216.7449 -150.2211,-274.7913 71.9003,33.22 199.8111,108.8788 261.8352,246.478 66.7533,148.1122 19.6794,272.5674 -15.5034,334.9883 z"
         fill="url(#linear-gradient-4)"
         id="path15"
         style="fill:url(#linear-gradient-4);stroke-width:1.044"
         sodipodi:nodetypes="cscccscccc" />
      <polygon
         points="345.23,455.82 345.24,457.01 345.23,457.01 "
         fill="#010201"
         id="polygon15"
         transform="matrix(1.044,0,0,1.044,521.31128,191.09592)" />
      <path
         style="font-size:266.667px;font-family:Kinetika;-inkscape-font-specification:Kinetika;opacity:0.99;fill:#04395e"
         d="m 860.62415,1667.1211 78.93342,88.5334 h -49.60006 l -66.93341,-75.7334 v 75.7334 h -39.73338 v -178.4002 h 39.73338 v 79.4668 l 67.73342,-79.4668 h 47.20005 z m 182.40065,-28.5334 v -17.0667 h 35.4667 v 134.1335 h -35.4667 v -16.8 q -16.5334,19.7334 -43.73343,19.7334 -28.2667,0 -46.66672,-19.7334 -18.13336,-19.7333 -18.13336,-50.4 0,-30.4001 18.40003,-50.1334 18.40002,-19.7334 46.93339,-19.7334 25.86669,0 43.20009,20 z m -61.06678,76.5335 q 10.13335,10.4 25.33338,10.4 15.2,0 25.3333,-10.6667 10.1334,-10.9334 10.1334,-26.6667 0,-15.2 -10.1334,-25.6 -10.1333,-10.6667 -25.0666,-10.6667 -15.46673,0 -25.60008,10.6667 -10.13335,10.4 -10.13335,26.1333 0,15.7334 10.13335,26.4001 z m 206.66708,-96.2668 q 23.4667,0 38.1334,14.9333 14.6667,14.6667 14.6667,38.4001 v 83.4667 h -38.1334 v -75.4667 q 0,-12.5334 -7.2,-20.2667 -6.9333,-7.7334 -18.1333,-7.7334 -12.2667,0 -20.5334,9.6001 -8,9.3333 -8,23.7333 v 70.1334 H 1111.025 V 1621.521 h 36.5334 v 16.0001 q 15.7334,-18.6667 41.0667,-18.6667 z m 197.0668,136.8001 h -121.6001 v -26.4 l 69.0667,-76.0001 h -64.8001 v -31.7334 h 114.1335 v 25.3334 l -68.5334,77.0668 h 71.7334 z m 156.8005,-70.6667 q 0,7.7333 -0.8,13.3333 h -105.3335 q 2.1333,14.1334 11.7333,22.6667 9.8667,8.2667 24.5334,8.2667 23.7334,0 33.0667,-18.1333 l 30.1334,12.8 q -6.6667,15.7333 -23.7334,25.3333 -16.8,9.3334 -39.2,9.3334 -32.5334,0 -52.5334,-19.4667 -19.7334,-19.4667 -19.7334,-50.1334 0,-31.2 20,-50.6667 20.2667,-19.7334 52.2668,-19.7334 30.6667,0 50.1334,18.6667 19.4667,18.4 19.4667,47.7334 z m -70.1335,-37.8667 q -13.0667,0 -22.9333,8 -9.8667,8 -12.8,21.0667 h 69.8667 q -2.1333,-12.8 -11.4667,-20.8 -9.3333,-8.2667 -22.6667,-8.2667 z m 172.267,-28.2667 q 23.4667,0 38.1334,14.9333 14.6667,14.6667 14.6667,38.4001 v 83.4667 h -38.1334 v -75.4667 q 0,-12.5334 -7.2,-20.2667 -6.9333,-7.7334 -18.1333,-7.7334 -12.2667,0 -20.5334,9.6001 -8,9.3333 -8,23.7333 v 70.1334 h -38.4001 V 1621.521 h 36.5334 v 16.0001 q 15.7334,-18.6667 41.0667,-18.6667 z m 150.9335,106.4001 q 11.7334,0 22.4001,-4.2667 v 31.4667 q -15.7334,6.1334 -32.8001,6.1334 -23.4667,0 -34.9334,-11.7334 -11.4666,-12 -11.4666,-33.0667 v -60 h -21.8667 v -32.2668 h 21.8667 v -41.3333 h 37.8667 v 41.3333 h 36.8 v 32.2668 h -36.8 v 51.4667 q 0,10.4 4,15.2 4.2667,4.8 14.9333,4.8 z"
         id="text158-2-0-3"
         aria-label="Kanzent" />
      <path
         style="font-weight:272;font-size:64.3126px;line-height:166.007px;font-family:Kinetika;-inkscape-font-specification:'Kinetika weight=272';letter-spacing:0.0942404px;word-spacing:0.0565442px;baseline-shift:baseline;opacity:0.99;fill:#04395e;stroke-width:0.942404"
         d="m 800.07583,1849.6402 2.89425,0.01 0.15179,-37.8728 15.98734,0.049 0.01,-2.2808 -34.93784,-0.1062 -0.01,2.2808 16.05624,0.048 z m 77.7054,-19.2309 27.42654,0.083 0.01,-2.2808 -27.42655,-0.083 0.0657,-16.3856 28.3913,0.086 0.01,-2.2807 -31.28556,-0.095 -0.16093,40.1536 32.11249,0.098 0.01,-2.2807 -29.21824,-0.089 z m 106.42251,19.918 c 9.78535,0.03 17.72986,-4.868 21.20496,-12.2399 l -2.7526,-0.9687 c -3.05805,6.4729 -10.17367,10.8928 -18.44298,10.8677 -11.30139,-0.034 -20.15866,-8.1041 -20.11753,-18.3676 0.0416,-10.3835 8.96359,-18.4592 20.19607,-18.4251 8.54497,0.026 15.62427,4.6692 18.62944,11.4006 l 2.6224,-0.9523 c -3.2771,-7.6327 -11.25037,-12.7587 -21.17354,-12.7889 -13.23089,-0.04 -23.12124,8.9329 -23.16863,20.757 -0.0471,11.7639 9.84042,20.6771 23.00241,20.7172 z m 111.96436,-21.6839 -31.0789,-0.094 0.077,-19.0865 -2.9632,-0.01 -0.1609,40.1536 2.9631,0.01 0.075,-18.7263 31.0788,0.094 -0.075,18.7264 2.8943,0.01 0.1609,-40.1536 -2.8942,-0.01 z m 98.3715,16.987 -31.4166,-36.1681 -2.8943,-0.01 -0.1609,40.1536 2.8942,0.01 0.1444,-36.0122 31.5546,36.1086 2.6876,0.01 0.1609,-40.1537 -2.8253,-0.01 z m 83.6048,4.6969 c 13.162,0.04 22.983,-8.8133 23.0301,-20.5773 0.047,-11.8241 -9.7018,-20.8569 -22.8639,-20.8969 -13.2308,-0.04 -23.1211,8.9329 -23.1686,20.757 -0.047,11.7639 9.7716,20.6769 23.0024,20.7172 z m 0.011,-2.3409 c -11.3014,-0.034 -20.1585,-8.1641 -20.1176,-18.3676 0.042,-10.3835 8.9636,-18.4592 20.265,-18.4249 11.2325,0.035 20.0206,8.1638 19.979,18.5473 -0.041,10.2035 -8.8939,18.2794 -20.1264,18.2452 z m 110.1478,1.7103 0.011,-2.3408 -26.5307,-0.08 0.1515,-37.8129 -2.9631,-0.01 -0.161,40.1536 z m 75.5584,0.6306 c 13.162,0.04 22.983,-8.8133 23.0301,-20.5773 0.047,-11.8241 -9.7019,-20.8569 -22.8639,-20.8969 -13.2308,-0.04 -23.1212,8.9329 -23.1686,20.757 -0.047,11.7639 9.7715,20.6769 23.0024,20.7172 z m 0.011,-2.3409 c -11.3014,-0.034 -20.1583,-8.1641 -20.1175,-18.3676 0.042,-10.3835 8.9637,-18.4592 20.2651,-18.4249 11.2325,0.035 20.0205,8.1638 19.979,18.5473 -0.041,10.2035 -8.8941,18.2794 -20.1266,18.2452 z m 121.0182,-28.2672 c -3.4887,-6.4328 -11.5337,-10.8388 -20.2855,-10.8654 -13.6443,-0.041 -23.2585,8.8123 -23.3062,20.6964 -0.048,12.0641 9.7713,20.737 23.209,20.7779 13.093,0.04 22.36,-8.155 22.4056,-19.4988 l 0.011,-1.6805 -23.2919,-0.071 -0.011,2.2808 20.3287,0.062 c -0.038,9.4232 -7.9916,16.6616 -19.293,16.6272 -11.7837,-0.035 -20.4353,-7.8648 -20.3927,-18.4885 0.042,-10.5035 8.3432,-18.4011 20.4715,-18.3642 7.5112,0.022 14.7311,4.0062 17.7398,9.8373 z m 43.4425,29.8879 2.9632,0.01 0.161,-40.1537 -2.9633,-0.01 z m 66.9552,-19.1978 27.4266,0.083 0.011,-2.2808 -27.4265,-0.083 0.065,-16.3856 28.3912,0.086 0.011,-2.2807 -31.2856,-0.095 -0.1609,40.1536 32.1125,0.098 0.011,-2.2807 -29.2182,-0.089 z m 101.8058,19.8439 c 9.6475,0.029 18.0674,-3.1262 18.1005,-11.409 0.033,-8.3429 -9.54,-9.6325 -17.6675,-10.6775 -7.232,-0.9223 -15.0821,-2.3867 -15.0573,-8.5688 0.02,-5.1617 4.858,-8.5082 14.5744,-8.4786 4.7548,0.014 9.7818,0.93 15.079,3.1669 l 1.1799,-2.0971 c -4.7468,-2.0552 -10.3234,-3.3326 -16.5254,-3.3515 -10.6123,-0.033 -17.2434,3.849 -17.2715,10.8714 -0.034,8.4628 10.3661,9.8749 16.9781,10.7353 7.6453,0.9836 15.7719,2.2088 15.747,8.4508 -0.024,5.822 -6.3075,9.1041 -14.9214,9.0779 -7.0289,-0.022 -13.7053,-2.0224 -18.2409,-5.1572 l -1.3179,2.1568 c 4.33,2.8341 11.1426,5.2556 19.343,5.2806 z"
         id="text158-2-0-3-3"
         aria-label="T   E   C   H   N   O   L   O   G  I   E   S" />
      <text
         xml:space="preserve"
         style="font-style:normal;font-variant:normal;font-weight:272;font-stretch:normal;font-size:96px;line-height:247.8px;font-family:Kinetika;-inkscape-font-specification:'Kinetika weight=272';text-align:start;letter-spacing:0.1px;word-spacing:0.06px;writing-mode:lr-tb;direction:ltr;text-anchor:start;opacity:0.99;fill:#04395e"
         x="1617.2974"
         y="1847.6898"
         id="text1"><tspan
           sodipodi:role="line"
           id="tspan1"
           x="1617.2974"
           y="1847.6898">  </tspan></text>
      <text
         xml:space="preserve"
         style="font-style:normal;font-variant:normal;font-weight:normal;font-stretch:normal;font-size:76px;line-height:196.175px;font-family:'.Al Nile PUA';-inkscape-font-specification:'.Al Nile PUA';text-align:start;letter-spacing:0.1px;word-spacing:0.06px;writing-mode:lr-tb;direction:ltr;text-anchor:start;opacity:0.99;fill:#184fd6;fill-opacity:1"
         x="1454.1667"
         y="1808.3333"
         id="text4"><tspan
           sodipodi:role="line"
           id="tspan4"
           x="1454.1667"
           y="1808.3333" /></text>
    </g>
  </g>
</svg>
