<?xml version="1.0" encoding="UTF-8" standalone="no"?>
<svg
   version="1.1"
   viewBox="0 0 1373.3049 324.25867"
   id="svg15"
   sodipodi:docname="KaizensLogoHeader.svg"
   inkscape:version="1.4 (e7c3feb1, 2024-10-09)"
   width="1373.3049"
   height="324.25867"
   inkscape:export-filename="../../static/images/KaizensLogoHeader.svg"
   inkscape:export-xdpi="96"
   inkscape:export-ydpi="96"
   xmlns:inkscape="http://www.inkscape.org/namespaces/inkscape"
   xmlns:sodipodi="http://sodipodi.sourceforge.net/DTD/sodipodi-0.dtd"
   xmlns="http://www.w3.org/2000/svg"
   xmlns:svg="http://www.w3.org/2000/svg">
  <sodipodi:namedview
     id="namedview15"
     pagecolor="#ffffff"
     bordercolor="#000000"
     borderopacity="0.25"
     inkscape:showpageshadow="2"
     inkscape:pageopacity="0.0"
     inkscape:pagecheckerboard="0"
     inkscape:deskcolor="#d1d1d1"
     inkscape:zoom="0.24"
     inkscape:cx="1602.0833"
     inkscape:cy="1143.75"
     inkscape:window-width="1912"
     inkscape:window-height="1012"
     inkscape:window-x="30"
     inkscape:window-y="25"
     inkscape:window-maximized="0"
     inkscape:current-layer="Layer_2">
    <inkscape:page
       x="0"
       y="0"
       width="1373.3049"
       height="324.25867"
       id="page2"
       margin="0"
       bleed="0" />
  </sodipodi:namedview>
  <defs
     id="defs12">
    <linearGradient
       id="linear-gradient"
       x1="1300.98"
       y1="831.87"
       x2="633.90997"
       y2="377.89001"
       gradientUnits="userSpaceOnUse"
       gradientTransform="matrix(0.32081973,0,0,0.32081973,295.27968,1435.2261)">
      <stop
         offset="0"
         stop-color="#418eea"
         id="stop13"
         style="stop-color:#6ac5f7;stop-opacity:1;" />
      <stop
         offset="0.19683258"
         stop-color="#418eea"
         id="stop1" />
      <stop
         offset="1"
         stop-color="#0037c0"
         id="stop2" />
    </linearGradient>
    <linearGradient
       id="linear-gradient-2"
       x1="827.15997"
       y1="200.99001"
       x2="376.88"
       y2="879.17999"
       gradientUnits="userSpaceOnUse"
       gradientTransform="matrix(0.32081973,0,0,0.32081973,295.27968,1435.2261)">
      <stop
         offset="0.12644546"
         stop-color="#6ac5f7"
         id="stop3"
         style="stop-color:#65d0ff;stop-opacity:1;" />
      <stop
         offset="1"
         stop-color="#1041d2"
         id="stop4" />
    </linearGradient>
    <linearGradient
       id="linear-gradient-3"
       x1="206.53999"
       y1="682.44"
       x2="884.72998"
       y2="1112.33"
       gradientUnits="userSpaceOnUse"
       gradientTransform="matrix(0.32081973,0,0,0.32081973,295.27968,1435.2261)">
      <stop
         offset="0"
         stop-color="#6ac5f7"
         id="stop5" />
      <stop
         offset="0.19738059"
         stop-color="#4b97ea"
         id="stop6" />
      <stop
         offset=".78"
         stop-color="#2059d8"
         id="stop7" />
      <stop
         offset="1"
         stop-color="#1041d2"
         id="stop8" />
    </linearGradient>
    <linearGradient
       id="linear-gradient-4"
       x1="673.06"
       y1="1298.97"
       x2="1125.1899"
       y2="617.08002"
       gradientUnits="userSpaceOnUse"
       gradientTransform="matrix(0.32081973,0,0,0.32081973,295.27968,1435.2261)">
      <stop
         offset="0.12192057"
         stop-color="#6ac5f7"
         id="stop9"
         style="stop-color:#65d0ff;stop-opacity:1;" />
      <stop
         offset="0.41703704"
         stop-color="#418ae6"
         id="stop10" />
      <stop
         offset=".76"
         stop-color="#1d55d7"
         id="stop11" />
      <stop
         offset=".94"
         stop-color="#1041d2"
         id="stop12" />
    </linearGradient>
  </defs>
  <!-- Generator: Adobe Illustrator 28.6.0, SVG Export Plug-In . SVG Version: 1.2.0 Build 709)  -->
  <g
     id="g15"
     transform="translate(-375.48783,-1515.4312)">
    <g
       id="Layer_2">
      <path
         d="m 665.71422,1770.0784 c 10.81154,-19.1819 25.2806,-57.4268 4.76418,-102.9414 -19.05996,-42.284 -58.36676,-65.5339 -80.46166,-75.7423 -15.61112,-10.0256 -34.18648,-15.8389 -54.11902,-15.8389 -35.46344,0 -66.62146,18.4086 -84.45904,46.1851 10.20528,-22.0884 33.45188,-61.4176 75.75196,-80.4808 45.4987,-20.5036 83.73394,-6.0571 102.92544,4.7514 40.11203,29.1593 66.18508,76.4514 66.18508,129.8293 0,35.2164 -11.34742,67.7827 -30.59012,94.2408 z"
         fill="url(#linear-gradient)"
         id="path12"
         sodipodi:nodetypes="cccscccscc"
         style="fill:url(#linear-gradient);stroke-width:0.32082" />
      <path
         d="m 630.11924,1546.0083 c -19.19148,-10.8053 -57.42672,-25.255 -102.9254,-4.7513 -42.30008,19.0663 -65.54988,58.3924 -75.75196,80.4808 l -0.007,0.01 c -10.01598,15.6079 -15.82602,34.1705 -15.82602,54.0934 0,35.4731 18.41184,66.6375 46.20445,84.4686 -22.08523,-10.2052 -61.43055,-33.4518 -80.50328,-75.7615 -20.49396,-45.4699 -6.07312,-83.689 4.72568,-102.8901 v -0.01 c 29.15929,-40.1281 76.46094,-66.2171 129.86142,-66.2171 35.20998,0 67.76675,11.3441 94.22147,30.5773 z"
         fill="url(#linear-gradient-2)"
         id="path13"
         sodipodi:nodetypes="ccccsccccsc"
         style="fill:url(#linear-gradient-2);stroke-width:0.32082" />
      <path
         d="m 620.3503,1729.947 c -10.20848,22.0885 -33.45838,61.4113 -75.75196,80.4776 -45.48906,20.5005 -83.71793,6.0603 -102.90937,-4.7383 -40.1185,-29.1594 -66.20114,-76.4578 -66.20114,-129.8455 0,-35.1906 11.33457,-67.7347 30.55166,-94.1862 -10.79558,19.2043 -25.21963,57.4202 -4.72567,102.89 19.06952,42.3098 58.41805,65.5596 80.50328,75.7616 0,0.01 0.007,0.01 0.007,0.01 15.60789,10.0064 34.16089,15.8164 54.07737,15.8164 35.45699,0 66.61825,-18.4023 84.45257,-46.1788 z"
         fill="url(#linear-gradient-3)"
         id="path14"
         sodipodi:nodetypes="cccsccccscc"
         style="fill:url(#linear-gradient-3);stroke-width:0.32082" />
      <path
         d="m 665.71422,1770.0784 c -29.15294,40.1025 -76.44176,66.1723 -129.8165,66.1723 -35.20037,0 -67.75715,-11.3378 -94.21195,-30.5677 19.19143,10.8019 57.42031,25.2389 102.90933,4.7385 42.29364,-19.0663 65.54354,-58.3893 75.75194,-80.4777 10.01598,-15.6078 15.82925,-34.1768 15.82925,-54.1094 0,-35.4537 -18.39895,-66.6053 -46.16273,-84.4429 22.09482,10.2084 61.4017,33.4583 80.46158,75.7423 20.51326,45.5146 6.04744,83.7596 -4.7641,102.9415 z"
         fill="url(#linear-gradient-4)"
         id="path15"
         style="fill:url(#linear-gradient-4);stroke-width:0.32082"
         sodipodi:nodetypes="cscccscccc" />
      <polygon
         points="345.24,457.01 345.23,457.01 345.23,455.82 "
         fill="#010201"
         id="polygon15"
         transform="matrix(0.32081973,0,0,0.32081973,295.27969,1435.2261)" />
      <path
         d="m 852.79077,1675.7878 78.93343,88.5335 h -49.60006 l -66.93341,-75.7334 v 75.7334 h -39.73339 v -178.4002 h 39.73339 v 79.4667 l 67.73341,-79.4667 h 47.20006 z m 182.40063,-28.5333 v -17.0667 h 35.4667 v 134.1335 h -35.4667 v -16.8 q -16.5334,19.7333 -43.7334,19.7333 -28.2667,0 -46.66672,-19.7333 -18.13336,-19.7334 -18.13336,-50.4001 0,-30.4 18.40002,-50.1334 18.40003,-19.7333 46.93339,-19.7333 25.86667,0 43.20007,20 z m -61.06675,76.5334 q 10.13334,10.4 25.33336,10.4 15.19999,0 25.33339,-10.6667 10.1333,-10.9333 10.1333,-26.6667 0,-15.2 -10.1333,-25.6 -10.1334,-10.6667 -25.06672,-10.6667 -15.46669,0 -25.60003,10.6667 -10.13335,10.4 -10.13335,26.1334 0,15.7333 10.13335,26.4 z m 165.06705,-115.4668 q -6.6667,6.6667 -16.5333,6.6667 -9.8667,0 -16.8001,-6.6667 -6.6666,-6.9333 -6.6666,-16.8 0,-9.6 6.6666,-16.2667 6.9334,-6.6667 16.8001,-6.6667 9.8666,0 16.5333,6.6667 6.6667,6.6667 6.6667,16.2667 0,9.8667 -6.6667,16.8 z m 2.6667,156.0002 h -38.6667 v -134.1335 h 38.6667 z m 145.8669,0 h -121.6002 v -26.4 l 69.0668,-76.0001 h -64.8001 v -31.7334 h 114.1335 v 25.3334 l -68.5334,77.0667 h 71.7334 z m 156.8004,-70.6668 q 0,7.7334 -0.8,13.3334 h -105.3335 q 2.1333,14.1333 11.7334,22.6667 9.8666,8.2667 24.5333,8.2667 23.7334,0 33.0667,-18.1334 l 30.1334,12.8 q -6.6667,15.7334 -23.7334,25.3334 -16.8,9.3333 -39.2,9.3333 -32.5334,0 -52.5334,-19.4667 -19.7334,-19.4667 -19.7334,-50.1334 0,-31.2 20.0001,-50.6667 20.2667,-19.7333 52.2667,-19.7333 30.6667,0 50.1334,18.6666 19.4667,18.4001 19.4667,47.7334 z m -70.1334,-37.8667 q -13.0667,0 -22.9334,8 -9.8667,8 -12.8,21.0667 h 69.8667 q -2.1333,-12.8 -11.4666,-20.8 -9.3334,-8.2667 -22.6667,-8.2667 z m 172.267,-28.2667 q 23.4667,0 38.1334,14.9334 14.6667,14.6667 14.6667,38.4 v 83.4668 h -38.1334 v -75.4668 q 0,-12.5333 -7.2,-20.2667 -6.9333,-7.7333 -18.1334,-7.7333 -12.2666,0 -20.5333,9.6 -8,9.3334 -8,23.7334 v 70.1334 h -38.4001 v -134.1335 h 36.5334 v 16 q 15.7334,-18.6667 41.0667,-18.6667 z m 139.4667,139.4669 q -38.9334,0 -65.8667,-18.4001 l 13.6,-28 q 10.1333,6.9333 25.0667,12 14.9333,5.0667 28.2667,5.0667 10.4,0 17.3333,-3.2 7.2,-3.2 7.2,-9.6 0,-6.4 -6.4,-8.8 -6.4,-2.6667 -22.9333,-5.6 -3.2,-0.5334 -4.8,-0.8 -24.8001,-4.5334 -37.3334,-13.0667 -12.2667,-8.5334 -12.2667,-26.9334 0,-20 15.4667,-31.2 15.4667,-11.2 43.7334,-11.2 30.4,0 56.5334,11.4666 l -9.8667,28.5334 q -25.3334,-11.7333 -48.0001,-11.7333 -21.6,0 -21.6,12.2666 0,7.4667 12,10.9334 4.2667,1.0667 15.4667,2.9333 l 2.4,0.5334 q 28.5334,5.3333 41.6001,13.6 13.0666,8.2666 13.0666,27.7333 0,20.2667 -17.0666,32.0001 -16.8001,11.4667 -45.6001,11.4667 z"
         id="text158-2-0-3"
         style="font-size:266.667px;font-family:Kinetika;-inkscape-font-specification:Kinetika;opacity:0.99;fill:#03304f;fill-opacity:0.99607843"
         aria-label="Kaizens" />
      <text
         xml:space="preserve"
         style="font-style:normal;font-variant:normal;font-weight:272;font-stretch:normal;font-size:96px;line-height:247.8px;font-family:Kinetika;-inkscape-font-specification:'Kinetika weight=272';text-align:start;letter-spacing:0.1px;word-spacing:0.06px;writing-mode:lr-tb;direction:ltr;text-anchor:start;opacity:0.99;fill:#03304f;fill-opacity:0.99607843"
         x="1617.2974"
         y="1839.6898"
         id="text1"><tspan
           sodipodi:role="line"
           id="tspan1"
           x="1617.2974"
           y="1839.6898">  </tspan></text>
      <text
         xml:space="preserve"
         style="font-style:normal;font-variant:normal;font-weight:normal;font-stretch:normal;font-size:76px;line-height:196.175px;font-family:'.Al Nile PUA';-inkscape-font-specification:'.Al Nile PUA';text-align:start;letter-spacing:0.1px;word-spacing:0.06px;writing-mode:lr-tb;direction:ltr;text-anchor:start;opacity:0.99;fill:#184fd6;fill-opacity:1"
         x="1454.1667"
         y="1808.3333"
         id="text4"><tspan
           sodipodi:role="line"
           id="tspan4"
           x="1454.1667"
           y="1808.3333" /></text>
    </g>
  </g>
</svg>
